<?xml version="1.0" encoding="utf-8"?>
<!-- Generator: Adobe Illustrator 16.0.0, SVG Export Plug-In . SVG Version: 6.00 Build 0)  -->
<!DOCTYPE svg PUBLIC "-//W3C//DTD SVG 1.1//EN" "http://www.w3.org/Graphics/SVG/1.1/DTD/svg11.dtd">
<svg version="1.1" id="Layer_1" xmlns="http://www.w3.org/2000/svg" xmlns:xlink="http://www.w3.org/1999/xlink" x="0px" y="0px"
	 width="425.721px" height="178.621px" viewBox="0 0 425.721 178.621" enable-background="new 0 0 425.721 178.621"
	 xml:space="preserve">
<g>
	<g>
		<g>
			<g>
				<path fill="#231F20" d="M84.508,116.753c0,6.355,3.858,9.344,12.407,9.843l25.504,1.37c10.477,0.624,16.957,8.598,16.957,19.562
					c0,3.489-0.689,7.352-5.927,7.352c-4.827,0-4.413-3.239-4.136-5.234c0.137-0.997,0.273-2.615,0.273-3.488
					c0-4.236-3.171-8.471-8.821-8.721l-23.023-0.996c-8.547-0.374-15.026-3.365-18.196-8.972c-3.172,5.606-9.651,8.598-18.199,8.972
					l-23.023,0.996c-5.652,0.25-8.822,4.484-8.822,8.847c0,0.871,0.139,2.365,0.275,3.362c0.276,1.995,0.688,5.234-4.136,5.234
					c-5.237,0-5.928-3.862-5.928-7.352c0-10.964,6.479-18.938,16.956-19.562c7.585-0.498,17.096-0.872,25.504-1.37
					c8.547-0.499,12.41-3.487,12.41-9.843c0-2.864,1.652-4.858,4.963-4.858C82.852,111.895,84.508,113.889,84.508,116.753z"/>
			</g>
		</g>
	</g>
	<g>
		<g>
			<path fill="#231F20" d="M151.453,54.869c-6.355,0-9.345-3.86-9.843-12.408c-0.498-8.409-0.874-17.922-1.373-25.504
				C139.614,6.479,131.641,0,120.679,0c-3.492,0-7.354,0.689-7.354,5.928c0,4.825,3.24,4.411,5.234,4.136
				c0.998-0.138,2.49-0.275,3.364-0.275c4.361,0,8.596,3.171,8.846,8.823l0.997,23.023c0.373,8.546,3.363,15.026,8.97,18.196
				c-5.606,3.172-8.597,9.648-8.97,18.197l-0.997,23.023c-0.247,5.604-4.413,9.449-8.611,9.516
				c-0.148,0.007-0.313,0.016-0.515,0.031c-11.08,0.396-13.693-1.625-15.732-3.504c-3.387-3.119-2.499-8.966-2.499-9.139
				c0.008-2.898-2.323-5.266-5.228-5.294c-0.016,0-0.033,0-0.051,0c-2.89,0-5.244,2.327-5.273,5.225
				c-0.014,1.021,0.094,10.175,6.789,16.438c3.778,3.538,8.721,5.326,14.717,5.326c0.802,0,5.472,0.076,6.313,0.012
				c10.962,0,18.936-6.479,19.559-16.957l1.373-25.505c0.498-8.547,3.487-12.407,9.843-12.407c2.865,0,4.858-1.655,4.858-4.963
				S154.318,54.869,151.453,54.869z"/>
		</g>
	</g>
	<g>
		<path fill="#231F20" d="M4.857,54.869c6.354,0,9.345-3.86,9.844-12.408c0.499-8.409,0.872-17.922,1.37-25.504
			C16.694,6.479,24.669,0,35.632,0c3.49,0,7.352,0.689,7.352,5.928c0,4.825-3.24,4.411-5.232,4.136
			c-0.997-0.138-2.492-0.275-3.365-0.275c-4.361,0-8.595,3.171-8.846,8.823l-0.996,23.023c-0.373,8.546-3.365,15.026-8.971,18.196
			c5.605,3.172,8.598,9.648,8.971,18.197l0.996,23.023c0.247,5.604,4.414,9.449,8.612,9.516c0.146,0.007,0.313,0.016,0.516,0.031
			c11.079,0.396,13.692-1.625,15.731-3.504c3.383-3.119,2.498-8.966,2.5-9.139c-0.011-2.898,2.322-5.266,5.225-5.294
			c0.016,0,0.034,0,0.053,0c2.891,0,5.246,2.327,5.274,5.225c0.011,1.021-0.095,10.175-6.788,16.438
			c-3.782,3.538-8.725,5.326-14.719,5.326c-0.801,0-5.474,0.076-6.313,0.012c-10.963,0-18.938-6.479-19.561-16.957l-1.37-25.505
			c-0.499-8.547-3.489-12.407-9.844-12.407C1.993,64.794,0,63.139,0,59.831S1.993,54.869,4.857,54.869z"/>
	</g>
	<path fill="#231F20" d="M103.035,69.022c4.273-5.538,6.599-12.301,6.599-19.385c0-17.531-14.264-31.795-31.795-31.795
		S46.044,32.106,46.044,49.638c0,7.894,2.108,14.145,6.591,19.429c-1.916,1.827-3.118,4.396-3.118,7.247
		c0,5.528,4.498,10.025,10.025,10.025s10.023-4.497,10.023-10.025c0-4.862-3.479-8.923-8.079-9.831
		c-0.211-0.445-0.491-0.865-0.866-1.228c-4.301-4.162-6.133-8.832-6.133-15.617c0-12.877,10.476-23.353,23.352-23.353
		c12.877,0,23.353,10.476,23.353,23.353c0,6.063-2.313,11.811-6.517,16.184c-0.203,0.211-0.379,0.438-0.529,0.676
		c-4.556,0.942-7.992,4.984-7.992,9.816c0,5.528,4.497,10.025,10.023,10.025c5.529,0,10.025-4.497,10.025-10.025
		C106.202,73.439,104.98,70.852,103.035,69.022z M63.235,76.313c0,2.037-1.658,3.693-3.693,3.693c-2.037,0-3.693-1.656-3.693-3.693
		c0-2.036,1.656-3.693,3.693-3.693C61.577,72.62,63.235,74.277,63.235,76.313z M96.177,80.007c-2.035,0-3.692-1.656-3.692-3.693
		c0-2.004,1.607-3.633,3.599-3.684c0.522,0.22,1.076,0.337,1.634,0.337c1.268,0.585,2.154,1.861,2.154,3.347
		C99.871,78.351,98.215,80.007,96.177,80.007z"/>
	<g>
		<path fill="#231F20" d="M213.986,66.723c0-1.268-0.439-2.404-1.283-3.296c-0.604-0.633-1.698-1.389-3.474-1.389
			c-1.388,0-2.692,0.569-3.774,1.647l-23.244,23.247V67.018c0-1.386-0.492-2.613-1.43-3.554c-1.836-1.835-5.115-1.908-7.063,0.039
			c-0.959,0.955-1.466,2.172-1.466,3.515v51.712c0,1.346,0.507,2.563,1.463,3.516c1.965,1.962,5.269,1.879,7.101-0.034
			c0.913-0.956,1.395-2.159,1.395-3.481v-17.964l4.203-4.252l18.471,24.981c0.923,1.428,2.416,2.213,4.197,2.213
			c1.332,0,2.518-0.53,3.432-1.531c0.869-0.945,1.325-2.113,1.325-3.375c0-0.93-0.302-1.896-0.995-3.014l-19.308-26.343
			l18.931-18.932C213.463,69.443,213.986,68.132,213.986,66.723z"/>
		<path fill="#231F20" d="M246.574,84.01c0-1.06-0.396-3.015-3.049-4.206c-1.49-0.67-3.373-0.994-5.755-0.994
			c-2.874,0-5.599,0.646-8.095,1.924c-0.938,0.479-1.82,1.036-2.638,1.67c-0.271-0.827-0.704-1.411-1.093-1.804
			c-0.62-0.615-1.737-1.349-3.549-1.349c-1.816,0-2.932,0.736-3.554,1.354c-0.616,0.616-1.352,1.732-1.352,3.551v34.646
			c0,1.821,0.735,2.938,1.352,3.553c0.619,0.617,1.736,1.354,3.554,1.354c1.814,0,2.93-0.734,3.556-1.354
			c0.614-0.616,1.349-1.734,1.349-3.552V96.809c0-2.506,0.899-4.48,2.746-6.034c1.953-1.647,4.457-2.448,7.65-2.448
			c0.668,0,1.17,0.018,1.572,0.064c1.17,0.108,1.994,0.157,2.471,0.157c1.129,0,2.045-0.215,2.807-0.662
			c0.892-0.529,1.522-1.413,1.852-2.564C246.518,84.954,246.574,84.536,246.574,84.01z"/>
		<path fill="#231F20" d="M280.125,81.848c-3.426-1.968-7.282-2.965-11.462-2.965c-4.179,0-8.035,0.997-11.458,2.965
			c-3.433,1.974-6.169,4.725-8.137,8.179c-1.967,3.445-2.965,7.311-2.965,11.49c0,4.17,0.969,8.019,2.88,11.437
			c1.914,3.43,4.57,6.167,7.899,8.143c3.333,1.979,7.098,2.98,11.193,2.98c3.509,0,6.776-0.759,9.709-2.253
			c1.27-0.645,2.449-1.401,3.533-2.263c0.15,1.093,0.63,2.048,1.409,2.791c1.869,1.786,5.212,1.781,7.064-0.067
			c0.938-0.938,1.433-2.139,1.433-3.482v-17.285c0-4.176-0.997-8.044-2.964-11.49C286.29,86.572,283.555,83.821,280.125,81.848z
			 M268.663,88.253c2.426,0,4.553,0.564,6.494,1.724c1.95,1.166,3.447,2.715,4.573,4.734c1.115,1.999,1.681,4.289,1.681,6.806
			c0,2.516-0.565,4.806-1.681,6.806c-1.125,2.015-2.615,3.549-4.556,4.687c-1.946,1.143-4.078,1.697-6.512,1.697
			c-2.438,0-4.581-0.556-6.554-1.699c-1.966-1.143-3.464-2.675-4.586-4.685c-1.114-2-1.681-4.29-1.681-6.806
			c0-2.517,0.566-4.807,1.681-6.806c1.123-2.016,2.631-3.562,4.602-4.729C264.094,88.82,266.233,88.253,268.663,88.253z"/>
		<path fill="#231F20" d="M318.127,98.944l13.178-11.929c1.405-1.193,1.7-2.532,1.7-3.447c0-1.045-0.438-2.097-1.3-3.118
			c-1.658-1.983-4.627-2.188-6.641-0.359l-17.218,15.568V66.944c0-1.39-0.48-2.605-1.394-3.518
			c-1.817-1.816-5.204-1.817-7.025,0.003c-0.91,0.91-1.394,2.126-1.394,3.515v51.857c0,1.391,0.483,2.606,1.394,3.517
			c1.817,1.818,5.212,1.815,7.025,0.001c0.912-0.909,1.394-2.127,1.394-3.518v-10.612l3.176-2.878l13.724,16.854
			c0.945,1.202,2.206,1.837,3.647,1.837c1.052,0,2.069-0.365,3.134-1.168c1.464-1.251,1.771-2.643,1.771-3.591
			c0-1.155-0.416-2.229-1.134-3.022L318.127,98.944z"/>
		<path fill="#231F20" d="M366.409,81.727c-3.115-1.887-6.725-2.844-10.727-2.844c-4.096,0-7.811,0.979-11.049,2.909
			c-3.244,1.937-5.811,4.665-7.627,8.11c-1.796,3.404-2.707,7.313-2.707,11.614c0,4.272,0.969,8.17,2.879,11.584
			c1.925,3.444,4.634,6.166,8.05,8.092c3.397,1.913,7.283,2.884,11.557,2.884c2.541,0,5.208-0.501,7.929-1.488
			c2.726-0.987,5.021-2.265,6.877-3.84c0.983-0.893,1.503-2.018,1.503-3.255c0-0.926-0.284-2.288-1.635-3.536l-0.193-0.159
			c-1.968-1.427-4.175-1.324-6.222,0.258c-0.873,0.752-2.086,1.397-3.609,1.919c-1.561,0.534-3.125,0.807-4.649,0.807
			c-3.607,0-6.511-1.047-8.877-3.204c-1.82-1.656-3.021-3.671-3.634-6.111h27.222c1.324,0,2.487-0.444,3.364-1.276
			c0.914-0.867,1.397-2.045,1.397-3.408c0-4.146-0.86-7.911-2.552-11.193C371.985,86.258,369.53,83.614,366.409,81.727z
			 M366.344,96.537h-21.808c0.653-2.191,1.752-3.996,3.322-5.472c2.065-1.942,4.625-2.886,7.824-2.886
			c3.133,0,5.609,0.934,7.569,2.854C364.763,92.513,365.783,94.326,366.344,96.537z"/>
		<path fill="#231F20" d="M420.492,88.536c-1.767-3.168-4.244-5.615-7.364-7.274c-3.068-1.626-6.556-2.452-10.369-2.452
			c-2.982,0-5.795,0.581-8.365,1.729c-1.15,0.515-2.232,1.121-3.237,1.819c-0.229-0.611-0.573-1.163-1.028-1.643
			c-1.813-1.901-5.212-1.922-7.104-0.036c-0.934,0.937-1.426,2.164-1.426,3.551v34.572c0,1.412,0.506,2.638,1.463,3.55
			c1.875,1.79,5.239,1.769,7.028-0.032c0.912-0.911,1.395-2.127,1.395-3.518V97.029c0-1.591,0.431-2.993,1.319-4.284
			c0.928-1.348,2.163-2.381,3.773-3.156c1.641-0.789,3.522-1.188,5.595-1.188c3.397,0,6.042,0.932,8.082,2.847
			c2,1.881,2.975,4.638,2.975,8.43v19.124c0,1.347,0.494,2.552,1.426,3.477c0.932,0.935,2.159,1.43,3.553,1.43
			c1.343,0,2.545-0.492,3.477-1.424c0.937-0.934,1.429-2.137,1.429-3.482V99.678C423.111,95.407,422.229,91.659,420.492,88.536z"/>
	</g>
	<g>
		<g>
			<path fill="#A7A9AC" d="M332.613,134.568c0.285,0.282,0.425,0.651,0.425,1.102c0,0.453-0.14,0.82-0.425,1.104
				c-0.28,0.281-0.646,0.422-1.101,0.422h-14.3v39.392c0,0.49-0.159,0.896-0.478,1.215c-0.32,0.32-0.728,0.48-1.215,0.48
				c-0.491,0-0.896-0.16-1.218-0.48c-0.32-0.319-0.479-0.725-0.479-1.215v-39.392h-14.297c-0.454,0-0.821-0.141-1.103-0.422
				c-0.283-0.283-0.423-0.65-0.423-1.104c0-0.45,0.14-0.819,0.423-1.102c0.281-0.283,0.648-0.424,1.103-0.424h31.985
				C331.967,134.145,332.333,134.285,332.613,134.568z"/>
		</g>
		<g>
			<path fill="#A7A9AC" d="M350.701,149.035c2.164,1.301,3.85,3.102,5.058,5.399c1.203,2.297,1.807,4.916,1.807,7.854
				c0,0.489-0.149,0.876-0.45,1.158c-0.304,0.282-0.699,0.424-1.188,0.424h-23.68c0.115,2.224,0.696,4.211,1.752,5.962
				c1.055,1.752,2.469,3.119,4.239,4.098c1.771,0.979,3.749,1.469,5.933,1.469c1.47,0,2.947-0.254,4.438-0.762
				c1.486-0.511,2.666-1.178,3.532-2.008c0.376-0.301,0.771-0.452,1.185-0.452c0.418,0,0.756,0.115,1.02,0.34
				c0.414,0.339,0.622,0.735,0.622,1.188c0,0.376-0.169,0.733-0.509,1.074c-1.205,1.093-2.781,1.996-4.721,2.711
				c-1.938,0.717-3.793,1.074-5.566,1.074c-2.975,0-5.621-0.669-7.938-2.006c-2.315-1.337-4.136-3.202-5.452-5.596
				c-1.319-2.392-1.979-5.095-1.979-8.109c0-3.052,0.609-5.773,1.836-8.165c1.223-2.393,2.938-4.259,5.143-5.596
				s4.72-2.007,7.545-2.007C346.074,147.086,348.532,147.737,350.701,149.035z M335.893,153.189
				c-2.016,1.96-3.213,4.541-3.588,7.743h21.981c-0.263-3.202-1.393-5.783-3.388-7.743c-1.998-1.959-4.521-2.938-7.573-2.938
				C340.386,150.251,337.909,151.23,335.893,153.189z"/>
		</g>
		<g>
			<path fill="#A7A9AC" d="M369.604,176.559c-2.337-1.375-4.173-3.269-5.51-5.679c-1.339-2.412-2.006-5.088-2.006-8.026
				c0-2.976,0.62-5.661,1.865-8.053c1.242-2.393,2.976-4.276,5.198-5.651c2.223-1.376,4.71-2.063,7.461-2.063
				c2.41,0,4.613,0.472,6.61,1.413c1.997,0.943,3.73,2.337,5.2,4.182c0.262,0.378,0.395,0.699,0.395,0.961
				c0,0.528-0.264,0.941-0.79,1.244c-0.264,0.227-0.566,0.339-0.905,0.339c-0.527,0-0.961-0.227-1.298-0.678
				c-2.412-2.863-5.483-4.296-9.212-4.296c-2.186,0-4.127,0.536-5.82,1.61c-1.697,1.073-3.006,2.573-3.929,4.494
				c-0.924,1.921-1.386,4.087-1.386,6.498c0,2.375,0.51,4.521,1.526,6.442c1.018,1.923,2.431,3.43,4.238,4.522
				c1.808,1.092,3.881,1.639,6.217,1.639c3.315,0,5.971-0.924,7.97-2.769c0.338-0.341,0.732-0.511,1.188-0.511
				c0.412,0,0.752,0.134,1.015,0.396c0.378,0.339,0.565,0.755,0.565,1.244c0,0.414-0.15,0.754-0.451,1.017
				c-1.319,1.205-2.864,2.139-4.634,2.797c-1.771,0.659-3.656,0.989-5.652,0.989C374.559,178.621,371.939,177.934,369.604,176.559z"
				/>
		</g>
		<g>
			<path fill="#A7A9AC" d="M418.798,148.669c2.166,1.131,3.861,2.779,5.086,4.946c1.222,2.165,1.837,4.755,1.837,7.77v15.202
				c0,0.49-0.161,0.896-0.48,1.215c-0.319,0.32-0.726,0.48-1.214,0.48c-0.491,0-0.896-0.16-1.216-0.48
				c-0.322-0.319-0.48-0.725-0.48-1.215v-15.202c0-3.58-1.007-6.31-3.023-8.195c-2.016-1.883-4.646-2.825-7.886-2.825
				c-1.994,0-3.813,0.387-5.453,1.158c-1.636,0.773-2.929,1.847-3.87,3.221c-0.941,1.376-1.414,2.893-1.414,4.551v17.293
				c0,0.49-0.147,0.896-0.449,1.215c-0.305,0.32-0.717,0.48-1.244,0.48c-0.492,0-0.895-0.16-1.217-0.48
				c-0.319-0.319-0.478-0.725-0.478-1.215V135.84c0-0.527,0.158-0.941,0.478-1.243c0.322-0.301,0.725-0.452,1.217-0.452
				c0.527,0,0.939,0.151,1.244,0.452c0.302,0.302,0.449,0.716,0.449,1.243v16.163c1.282-1.582,2.845-2.816,4.691-3.702
				c1.846-0.884,3.862-1.328,6.046-1.328C414.173,146.973,416.632,147.538,418.798,148.669z"/>
		</g>
	</g>
</g>
</svg>
