<?xml version="1.0" encoding="utf-8"?>
<!-- Generator: Adobe Illustrator 16.0.0, SVG Export Plug-In . SVG Version: 6.00 Build 0)  -->
<!DOCTYPE svg PUBLIC "-//W3C//DTD SVG 1.1//EN" "http://www.w3.org/Graphics/SVG/1.1/DTD/svg11.dtd">
<svg version="1.1" id="Layer_1" xmlns="http://www.w3.org/2000/svg" xmlns:xlink="http://www.w3.org/1999/xlink" x="0px" y="0px"
	 width="155.823px" height="154.879px" viewBox="0 0 155.823 154.879" enable-background="new 0 0 155.823 154.879"
	 xml:space="preserve">
<g>
	<g>
		<g>
			<path fill="#231F20" d="M84.508,116.753c0,6.355,3.858,9.344,12.407,9.843l25.504,1.37c10.477,0.624,16.957,8.598,16.957,19.562
				c0,3.489-0.689,7.352-5.927,7.352c-4.827,0-4.413-3.239-4.136-5.234c0.137-0.997,0.273-2.615,0.273-3.488
				c0-4.236-3.171-8.471-8.821-8.721l-23.023-0.996c-8.547-0.374-15.026-3.365-18.196-8.972c-3.172,5.606-9.651,8.598-18.199,8.972
				l-23.023,0.996c-5.652,0.25-8.822,4.484-8.822,8.847c0,0.871,0.139,2.365,0.275,3.362c0.276,1.995,0.688,5.234-4.136,5.234
				c-5.237,0-5.928-3.862-5.928-7.352c0-10.964,6.479-18.938,16.956-19.562c7.585-0.498,17.096-0.872,25.504-1.37
				c8.547-0.499,12.41-3.487,12.41-9.843c0-2.864,1.652-4.858,4.963-4.858C82.852,111.895,84.508,113.889,84.508,116.753z"/>
		</g>
	</g>
</g>
<g>
	<g>
		<path fill="#231F20" d="M151.453,54.869c-6.355,0-9.345-3.86-9.843-12.408c-0.498-8.409-0.874-17.922-1.373-25.504
			C139.614,6.479,131.641,0,120.679,0c-3.492,0-7.354,0.689-7.354,5.928c0,4.825,3.24,4.411,5.234,4.136
			c0.998-0.138,2.49-0.275,3.364-0.275c4.361,0,8.596,3.171,8.846,8.823l0.997,23.023c0.373,8.546,3.363,15.026,8.97,18.196
			c-5.606,3.172-8.597,9.648-8.97,18.197l-0.997,23.023c-0.247,5.604-4.413,9.449-8.611,9.516c-0.148,0.007-0.313,0.016-0.515,0.031
			c-11.08,0.396-13.693-1.625-15.732-3.504c-3.387-3.119-2.499-8.966-2.499-9.139c0.008-2.898-2.323-5.266-5.228-5.294
			c-0.016,0-0.033,0-0.051,0c-2.89,0-5.244,2.327-5.273,5.225c-0.014,1.021,0.094,10.175,6.789,16.438
			c3.778,3.538,8.721,5.326,14.717,5.326c0.802,0,5.472,0.076,6.313,0.012c10.962,0,18.936-6.479,19.559-16.957l1.373-25.505
			c0.498-8.547,3.487-12.407,9.843-12.407c2.865,0,4.858-1.655,4.858-4.963S154.318,54.869,151.453,54.869z"/>
	</g>
</g>
<g>
	<path fill="#231F20" d="M4.857,54.869c6.354,0,9.345-3.86,9.844-12.408c0.499-8.409,0.872-17.922,1.37-25.504
		C16.694,6.479,24.669,0,35.632,0c3.49,0,7.352,0.689,7.352,5.928c0,4.825-3.24,4.411-5.232,4.136
		c-0.997-0.138-2.492-0.275-3.365-0.275c-4.361,0-8.595,3.171-8.846,8.823l-0.996,23.023c-0.373,8.546-3.365,15.026-8.971,18.196
		c5.605,3.172,8.598,9.648,8.971,18.197l0.996,23.023c0.247,5.604,4.414,9.449,8.612,9.516c0.146,0.007,0.313,0.016,0.516,0.031
		c11.079,0.396,13.692-1.625,15.731-3.504c3.383-3.119,2.498-8.966,2.5-9.139c-0.011-2.898,2.322-5.266,5.225-5.294
		c0.016,0,0.034,0,0.053,0c2.891,0,5.246,2.327,5.274,5.225c0.011,1.021-0.095,10.175-6.788,16.438
		c-3.782,3.538-8.725,5.326-14.719,5.326c-0.801,0-5.474,0.076-6.313,0.012c-10.963,0-18.938-6.479-19.561-16.957l-1.37-25.505
		c-0.499-8.547-3.489-12.407-9.844-12.407C1.993,64.794,0,63.139,0,59.831S1.993,54.869,4.857,54.869z"/>
</g>
<path fill="#231F20" d="M103.035,69.022c4.273-5.538,6.599-12.301,6.599-19.385c0-17.531-14.264-31.795-31.795-31.795
	S46.044,32.106,46.044,49.638c0,7.894,2.108,14.145,6.591,19.429c-1.916,1.827-3.118,4.396-3.118,7.247
	c0,5.528,4.498,10.025,10.025,10.025s10.023-4.497,10.023-10.025c0-4.862-3.479-8.923-8.079-9.831
	c-0.211-0.445-0.491-0.865-0.866-1.228c-4.301-4.162-6.133-8.832-6.133-15.617c0-12.877,10.476-23.353,23.352-23.353
	c12.877,0,23.353,10.476,23.353,23.353c0,6.063-2.313,11.811-6.517,16.184c-0.203,0.211-0.379,0.438-0.529,0.676
	c-4.556,0.942-7.992,4.984-7.992,9.816c0,5.528,4.497,10.025,10.023,10.025c5.529,0,10.025-4.497,10.025-10.025
	C106.202,73.439,104.98,70.852,103.035,69.022z M63.235,76.313c0,2.037-1.658,3.693-3.693,3.693c-2.037,0-3.693-1.656-3.693-3.693
	c0-2.036,1.656-3.693,3.693-3.693C61.577,72.62,63.235,74.277,63.235,76.313z M96.177,80.007c-2.035,0-3.692-1.656-3.692-3.693
	c0-2.004,1.607-3.633,3.599-3.684c0.522,0.22,1.076,0.337,1.634,0.337c1.268,0.585,2.154,1.861,2.154,3.347
	C99.871,78.351,98.215,80.007,96.177,80.007z"/>
</svg>
