<?xml version="1.0" encoding="utf-8"?>
<!-- Generator: Adobe Illustrator 16.0.0, SVG Export Plug-In . SVG Version: 6.00 Build 0)  -->
<!DOCTYPE svg PUBLIC "-//W3C//DTD SVG 1.1//EN" "http://www.w3.org/Graphics/SVG/1.1/DTD/svg11.dtd">
<svg version="1.1" id="Layer_1" xmlns="http://www.w3.org/2000/svg" xmlns:xlink="http://www.w3.org/1999/xlink" x="0px" y="0px"
	 width="226px" height="226px" viewBox="0 0 226 226" enable-background="new 0 0 226 226" xml:space="preserve">
<g>
	<g>
		<path d="M137.795,223.765h-49.77c-6.274,0-11.189-3.791-11.189-8.63V91.637c0-0.203-0.006-0.472-0.012-0.795
			c-0.09-4.642-0.364-18.768,8.841-21.288c1.316-0.367,3.661-0.764,6.249-0.764c1.413,0,2.315-0.555,2.56-0.862
			c0-0.03-0.001-0.06-0.002-0.088l-0.03-0.139V19.645h36.936l-0.029,48.178c-0.001,0.034-0.001,0.069-0.001,0.105
			c0.242,0.307,1.144,0.862,2.558,0.862c2.588,0,4.933,0.396,6.264,0.768c9.191,2.517,8.917,16.643,8.827,21.284
			c-0.006,0.323-0.012,0.592-0.012,0.795v123.498C148.983,219.974,144.068,223.765,137.795,223.765z M100.441,67.214
			c0.058,0.635,0.035,1.466-0.07,1.942l-0.078,0.287l-0.329,0.939c-1.248,2.677-4.408,4.407-8.05,4.407
			c-2.123,0-3.923,0.344-4.651,0.547c-2.157,0.591-4.666,3.736-4.439,15.389c0.007,0.37,0.013,0.679,0.013,0.911v123.498
			c0,1.047,2.069,2.63,5.189,2.63h49.77c3.119,0,5.188-1.583,5.188-2.63V91.637c0-0.232,0.006-0.541,0.013-0.911
			c0.227-11.652-2.281-14.798-4.425-15.385c-0.742-0.207-2.544-0.551-4.667-0.551c-3.643,0-6.802-1.73-8.048-4.409l-0.129-0.325
			l-0.287-0.929c-0.096-0.457-0.116-1.28-0.063-1.9V25.645h-24.936V67.214z"/>
	</g>
	<g>
		<path d="M128.715,25.645H97.105c-3.779,0-6.854-3.074-6.854-6.854V9.737c0-3.778,3.074-6.853,6.854-6.853h31.609
			c3.778,0,6.853,3.074,6.853,6.853v9.054C135.567,22.57,132.493,25.645,128.715,25.645z M97.105,8.885
			c-0.471,0-0.854,0.383-0.854,0.853v9.054c0,0.471,0.383,0.854,0.854,0.854h31.609c0.47,0,0.853-0.383,0.853-0.854V9.737
			c0-0.47-0.383-0.853-0.853-0.853H97.105z"/>
	</g>
	<g>
		<g>
			<path d="M106.04,144.141c-1.559,0-2.874-1.204-2.989-2.782c-0.12-1.652,1.122-3.09,2.774-3.21l11.986-0.871l8.56-6.808
				c1.298-1.031,3.185-0.816,4.215,0.48c1.031,1.297,0.816,3.184-0.48,4.215l-9.285,7.385c-0.473,0.376-1.048,0.601-1.649,0.645
				l-12.91,0.938C106.187,144.138,106.113,144.141,106.04,144.141z"/>
		</g>
		<g>
			<path d="M102.063,199.697c-0.819,0-1.606-0.335-2.175-0.934c-0.619-0.651-0.913-1.546-0.802-2.438l6.707-53.837L91.499,91.82
				c-0.244-0.867-0.086-1.799,0.432-2.537s1.34-1.204,2.238-1.27l29.369-2.134c0.912-0.054,1.784,0.279,2.403,0.937
				c0.619,0.658,0.908,1.561,0.788,2.456l-7.023,52.206l14.619,52.276c0.242,0.866,0.082,1.797-0.436,2.533
				s-1.339,1.201-2.236,1.267l-29.372,2.135C102.208,199.694,102.136,199.697,102.063,199.697z M98.272,93.731l13.461,47.713
				c0.108,0.385,0.139,0.788,0.089,1.186l-6.33,50.811l22.066-1.604l-13.798-49.337c-0.109-0.393-0.138-0.804-0.084-1.208
				l6.613-49.159L98.272,93.731z"/>
		</g>
		<g>
			<path d="M129.027,152.023c-0.701,0-1.406-0.244-1.976-0.743l-10.075-8.821c-1.246-1.091-1.372-2.986-0.28-4.233
				c1.09-1.245,2.985-1.374,4.233-0.28l10.075,8.821c1.246,1.091,1.372,2.986,0.28,4.233
				C130.692,151.677,129.862,152.023,129.027,152.023z"/>
		</g>
	</g>
</g>
</svg>
