<?xml version="1.0" encoding="utf-8"?>
<!-- Generator: Adobe Illustrator 16.0.0, SVG Export Plug-In . SVG Version: 6.00 Build 0)  -->
<!DOCTYPE svg PUBLIC "-//W3C//DTD SVG 1.1//EN" "http://www.w3.org/Graphics/SVG/1.1/DTD/svg11.dtd">
<svg version="1.1" id="Layer_1" xmlns="http://www.w3.org/2000/svg" xmlns:xlink="http://www.w3.org/1999/xlink" x="0px" y="0px"
	 width="226px" height="226px" viewBox="0 0 226 226" enable-background="new 0 0 226 226" xml:space="preserve">
<g>
	<g>
		<g>
			<g>
				<path d="M142.982,203.923v11.212c0,1.047-2.068,2.63-5.188,2.63h-49.77c-3.12,0-5.189-1.583-5.189-2.63V91.637
					c0-0.232-0.006-0.541-0.013-0.911c-0.227-11.652,2.282-14.798,4.438-15.389c0.729-0.203,2.529-0.547,4.652-0.547
					c3.642,0,6.802-1.73,8.05-4.407l0.329-0.939l0.078-0.287c0.105-0.477,0.129-1.308,0.07-1.942V25.645h24.936v41.582
					c-0.053,0.62-0.032,1.443,0.063,1.9l0.287,0.929l0.129,0.325c1.246,2.679,4.406,4.409,8.049,4.409
					c2.123,0,3.924,0.344,4.666,0.551c2.145,0.587,4.652,3.732,4.426,15.385c-0.007,0.37-0.014,0.679-0.014,0.911v5.86
					c0.813-0.239,1.703-0.378,2.685-0.378c1.243,0,2.343,0.22,3.315,0.594v-6.076c0-0.203,0.007-0.472,0.013-0.795
					c0.091-4.642,0.364-18.768-8.827-21.284c-1.332-0.371-3.676-0.768-6.264-0.768c-1.414,0-2.316-0.556-2.559-0.862
					c0-0.036,0-0.071,0.002-0.105l0.029-48.178H94.441v48.057l0.03,0.139c0.001,0.028,0.002,0.058,0.002,0.088
					c-0.244,0.308-1.146,0.862-2.56,0.862c-2.588,0-4.933,0.396-6.248,0.764c-9.206,2.521-8.932,16.646-8.842,21.288
					c0.006,0.323,0.012,0.592,0.012,0.795v123.498c0,4.839,4.916,8.63,11.189,8.63h49.77c6.273,0,11.188-3.791,11.188-8.63v-11.723
					C147.075,204.229,144.9,204.449,142.982,203.923z"/>
			</g>
		</g>
	</g>
	<g>
		<g>
			<g>
				<path d="M128.715,25.645H97.105c-3.779,0-6.854-3.074-6.854-6.854V9.737c0-3.778,3.074-6.853,6.854-6.853h31.609
					c3.777,0,6.852,3.074,6.852,6.853v9.054C135.566,22.57,132.492,25.645,128.715,25.645z M97.105,8.885
					c-0.471,0-0.854,0.383-0.854,0.853v9.054c0,0.471,0.383,0.854,0.854,0.854h31.609c0.47,0,0.852-0.383,0.852-0.854V9.737
					c0-0.47-0.382-0.853-0.852-0.853H97.105z"/>
			</g>
		</g>
	</g>
</g>
<g>
	<path d="M218,206.811h-82c-1.561,0-2.843-1.191-2.986-2.715c-0.284-0.458-0.447-0.998-0.447-1.576v-85.591H124
		c-1.657,0-3-1.343-3-3V98.191c0-1.657,1.343-3,3-3h83.5c1.657,0,3,1.343,3,3v24.589c0,0.633-0.2,1.249-0.571,1.761l-3.793,5.232
		l3.549,3.771c0.523,0.556,0.815,1.291,0.815,2.056v47.21h7.5c1.657,0,3,1.343,3,3v18C221,205.468,219.657,206.811,218,206.811z
		 M138.566,200.811H215v-12h-7.5c-1.657,0-3-1.343-3-3V136.79l-4.435-4.712c-0.987-1.048-1.09-2.65-0.244-3.816l4.679-6.454v-20.616
		H127v9.737h8.566c1.657,0,3,1.343,3,3V200.811z"/>
</g>
<g>
	<path d="M207.5,188.811h-25c-1.657,0-3-1.343-3-3s1.343-3,3-3h25c1.657,0,3,1.343,3,3S209.157,188.811,207.5,188.811z"/>
</g>
<g>
	<path d="M158.5,116.929h-22.934c-1.657,0-3-1.343-3-3s1.343-3,3-3H158.5c1.657,0,3,1.343,3,3S160.157,116.929,158.5,116.929z"/>
</g>
</svg>
