<?xml version="1.0" encoding="utf-8"?>
<!-- Generator: Adobe Illustrator 16.0.0, SVG Export Plug-In . SVG Version: 6.00 Build 0)  -->
<!DOCTYPE svg PUBLIC "-//W3C//DTD SVG 1.1//EN" "http://www.w3.org/Graphics/SVG/1.1/DTD/svg11.dtd">
<svg version="1.1" id="Layer_1" xmlns="http://www.w3.org/2000/svg" xmlns:xlink="http://www.w3.org/1999/xlink" x="0px" y="0px"
	 width="226px" height="226px" viewBox="0 0 226 226" enable-background="new 0 0 226 226" xml:space="preserve">
<g>
	<g>
		<path d="M172.185,218.94H74.367c-32.205,0-56.024-67.481-57.022-70.354c-0.372-1.069-0.203-2.254,0.453-3.177
			c0.657-0.923,1.72-1.472,2.853-1.472h47.373c0.996,0,1.945,0.425,2.609,1.167L90.26,167.06h66.596l19.978-21.977
			c0.663-0.729,1.604-1.146,2.59-1.146h25.927c0.992,0,1.938,0.422,2.603,1.159c0.664,0.738,0.982,1.724,0.878,2.711
			c-5.302,49.885-33.472,69.701-34.668,70.521C173.579,218.728,172.891,218.94,172.185,218.94z M25.666,150.938
			c7.918,20.561,27.806,61.003,48.701,61.003h96.643c4.367-3.474,25.056-21.81,30.391-61.003h-20.429l-19.978,21.977
			c-0.663,0.729-1.604,1.146-2.59,1.146h-69.71c-0.996,0-1.945-0.425-2.609-1.167l-19.627-21.955H25.666z"/>
	</g>
	<g>
		<path d="M167.641,54.465H72.793c-1.933,0-3.5-1.567-3.5-3.5s1.567-3.5,3.5-3.5h94.848c1.933,0,3.5,1.567,3.5,3.5
			S169.573,54.465,167.641,54.465z"/>
	</g>
	<g>
		<path d="M118.469,172.697c-1.933,0-3.5-1.567-3.5-3.5V50.965c0-1.933,1.567-3.5,3.5-3.5s3.5,1.567,3.5,3.5v118.232
			C121.969,171.13,120.401,172.697,118.469,172.697z"/>
	</g>
	<g>
		<path d="M118.469,54.465c-1.933,0-3.5-1.567-3.5-3.5V35.488c0-1.933,1.567-3.5,3.5-3.5s3.5,1.567,3.5,3.5v15.477
			C121.969,52.897,120.401,54.465,118.469,54.465z"/>
	</g>
</g>
<g>
	<path d="M118.469,45.311c-0.534,0-1.069-0.122-1.564-0.369c-1.187-0.593-1.936-1.805-1.936-3.131V15.427c0-1.933,1.567-3.5,3.5-3.5
		h35.143c1.506,0,2.844,0.964,3.32,2.393s-0.015,3.002-1.219,3.906L120.57,44.609C119.952,45.073,119.213,45.311,118.469,45.311z
		 M121.969,18.927v15.88l21.151-15.88H121.969z"/>
</g>
<g>
	<path d="M53.667,162.558H25.662c-1.381,0-2.5-1.119-2.5-2.5s1.119-2.5,2.5-2.5h28.005c1.381,0,2.5,1.119,2.5,2.5
		S55.048,162.558,53.667,162.558z"/>
</g>
<g>
	<path d="M197.664,181.963H172c-1.381,0-2.5-1.119-2.5-2.5s1.119-2.5,2.5-2.5h25.664c1.381,0,2.5,1.119,2.5,2.5
		S199.045,181.963,197.664,181.963z"/>
</g>
<g>
	<path d="M144,196.679H44.333c-1.381,0-2.5-1.119-2.5-2.5s1.119-2.5,2.5-2.5H144c1.381,0,2.5,1.119,2.5,2.5
		S145.381,196.679,144,196.679z"/>
</g>
</svg>
