<?xml version="1.0" encoding="utf-8"?>
<!-- Generator: Adobe Illustrator 16.0.0, SVG Export Plug-In . SVG Version: 6.00 Build 0)  -->
<!DOCTYPE svg PUBLIC "-//W3C//DTD SVG 1.1//EN" "http://www.w3.org/Graphics/SVG/1.1/DTD/svg11.dtd">
<svg version="1.1" id="Layer_1" xmlns="http://www.w3.org/2000/svg" xmlns:xlink="http://www.w3.org/1999/xlink" x="0px" y="0px"
	 width="226px" height="226px" viewBox="0 0 226 226" enable-background="new 0 0 226 226" xml:space="preserve">
<g>
	<g>
		<path fill="none" stroke="#000000" stroke-width="7" stroke-linecap="round" stroke-linejoin="round" stroke-miterlimit="10" d="
			M201.202,92.782"/>
	</g>
</g>
<g>
	<g>
		<path d="M201.057,106.03c-0.397,0-0.798-0.067-1.186-0.207L84.961,64.419L30.067,98.796c-1.635,1.028-3.796,0.532-4.824-1.108
			c-1.025-1.638-0.529-3.798,1.109-4.824l53.256-33.352L55.319,23.793c-0.833-1.226-0.804-2.844,0.073-4.039
			c0.878-1.195,2.414-1.704,3.832-1.279l124.595,37.6c0.996,0.301,1.807,1.028,2.212,1.986l18.249,43.105
			c0.543,1.28,0.275,2.761-0.681,3.771C202.926,105.647,202.002,106.03,201.057,106.03z M86.801,57.642l107.913,38.883
			l-14.488-34.224L66.667,28.032L86.801,57.642z"/>
	</g>
	<g>
		<path d="M201.059,104.514c-0.973,0-1.941-0.403-2.633-1.193c-1.274-1.453-1.129-3.665,0.325-4.938
			c20.078-17.597,20.229-32.833,18.531-40.349c-1.931-8.549-8.002-15.436-15.466-17.544c-0.078-0.021-0.155-0.047-0.23-0.074
			C156.515,24.244,104.216,9.784,90.925,9.784c-0.054,0-0.106,0-0.158,0c-25.48,4.694-28.557,13.7-28.585,13.791
			c0.027-0.089,0.034-0.137,0.034-0.137l-6.836-1.508c0.302-1.367,3.83-13.523,34.413-19.084c0.178-0.032,0.357-0.051,0.537-0.056
			c0.168-0.004,0.344-0.006,0.522-0.006c15.674,0,71.709,16.199,112.987,31.002c9.843,2.835,17.792,11.732,20.271,22.703
			c2.04,9.033,2.058,27.171-20.746,47.155C202.7,104.228,201.878,104.514,201.059,104.514z"/>
	</g>
	<g>
		<g>
			<path fill="none" stroke="#000000" stroke-width="7" stroke-linecap="round" stroke-linejoin="round" stroke-miterlimit="10" d="
				M201.224,104.089"/>
		</g>
	</g>
	<g>
		<g>
			<g>
				<path d="M142.479,221.702c-0.408,0-0.815-0.07-1.207-0.215L25.845,179.07c-1.378-0.506-2.293-1.817-2.293-3.285V98.553
					c0-1.135,0.55-2.199,1.476-2.855s2.112-0.822,3.183-0.447l115.427,40.489c1.402,0.492,2.342,1.816,2.342,3.303v79.16
					c0,1.144-0.559,2.216-1.497,2.87C143.885,221.488,143.186,221.702,142.479,221.702z M30.552,173.343l108.427,39.845v-71.664
					L30.552,103.489V173.343z"/>
			</g>
		</g>
		<g>
			<g>
				<path d="M142.479,221.702c-0.563,0-1.127-0.136-1.643-0.409c-1.143-0.607-1.857-1.796-1.857-3.091v-79.16
					c0-1.234,0.649-2.377,1.711-3.008l58.744-34.953c1.086-0.646,2.434-0.658,3.527-0.03c1.096,0.626,1.77,1.794,1.763,3.056
					l-0.374,74.702c-0.006,1.156-0.584,2.236-1.541,2.883l-58.371,39.411C143.848,221.501,143.164,221.702,142.479,221.702z
					 M145.979,141.032v70.584l51.381-34.691l0.333-66.662L145.979,141.032z"/>
			</g>
		</g>
		<g>
			<g>
				<g>
					<circle cx="81.284" cy="134.653" r="7.551"/>
				</g>
			</g>
		</g>
		<g>
			<g>
				<g>
					<path d="M84.402,145.476c0,1.766-1.43,3.196-3.193,3.196l0,0c-1.764,0-3.197-1.431-3.197-3.196v-10.776
						c0-1.766,1.434-3.196,3.197-3.196l0,0c1.764,0,3.193,1.431,3.193,3.196V145.476z"/>
				</g>
			</g>
		</g>
		<g>
			<g>
				<g>
					<path d="M60.363,130.084c-0.215,0-0.434-0.035-0.648-0.109l-33.32-11.637c-1.027-0.358-1.568-1.482-1.21-2.511
						c0.358-1.026,1.479-1.567,2.511-1.21l33.318,11.635c1.027,0.359,1.57,1.483,1.211,2.512
						C61.941,129.576,61.178,130.084,60.363,130.084z"/>
				</g>
			</g>
		</g>
		<g>
			<g>
				<g>
					<path d="M141.838,180.004c-0.202,0-0.408-0.031-0.611-0.098l-24.503-7.991c-1.034-0.337-1.601-1.45-1.263-2.485
						c0.336-1.035,1.451-1.6,2.483-1.262l24.505,7.991c1.035,0.337,1.6,1.45,1.263,2.485
						C143.44,179.476,142.668,180.004,141.838,180.004z"/>
				</g>
			</g>
		</g>
		<g>
			<g>
				<g>
					<path d="M142.473,202.52c-0.207,0-0.416-0.033-0.623-0.101l-56.71-18.815c-1.032-0.343-1.592-1.458-1.249-2.491
						s1.461-1.591,2.492-1.25l56.709,18.815c1.033,0.344,1.594,1.458,1.25,2.491C144.068,201.996,143.299,202.52,142.473,202.52z"/>
				</g>
			</g>
		</g>
		<g>
			<g>
				<g>
					<path d="M40.504,166.297c-0.205,0-0.414-0.032-0.619-0.101l-13.461-4.465c-1.033-0.344-1.592-1.459-1.25-2.491
						c0.344-1.033,1.461-1.59,2.492-1.25l13.459,4.465c1.033,0.344,1.592,1.458,1.25,2.492
						C42.101,165.773,41.33,166.297,40.504,166.297z"/>
				</g>
			</g>
		</g>
		<g>
			<g>
				<g>
					<path d="M142.473,159.578c-0.699,0-1.379-0.375-1.736-1.034c-0.516-0.958-0.158-2.153,0.799-2.671l18.82-10.162
						c0.959-0.517,2.154-0.16,2.67,0.798c0.518,0.958,0.162,2.153-0.797,2.67l-18.82,10.163
						C143.109,159.503,142.789,159.578,142.473,159.578z"/>
				</g>
			</g>
		</g>
		<g>
			<g>
				<g>
					<path d="M182.398,146.631c-0.701,0-1.381-0.375-1.736-1.035c-0.518-0.957-0.16-2.152,0.797-2.67l18.821-10.162
						c0.958-0.518,2.153-0.16,2.671,0.797c0.517,0.958,0.16,2.154-0.798,2.671l-18.821,10.163
						C183.035,146.555,182.715,146.631,182.398,146.631z"/>
				</g>
			</g>
		</g>
		<g>
			<g>
				<g>
					<path d="M197.832,72.053c0.012-0.7,0.398-1.372,1.063-1.717c0.968-0.501,2.156-0.124,2.658,0.843l9.84,18.992
						c0.501,0.966,0.123,2.155-0.844,2.654c-0.966,0.501-2.154,0.126-2.656-0.842l-9.842-18.99
						C197.898,72.691,197.826,72.37,197.832,72.053z"/>
				</g>
			</g>
		</g>
		<g>
			<g>
				<g>
					<path d="M166.808,44.683c-0.471-0.519-0.647-1.273-0.397-1.979c0.363-1.027,1.488-1.564,2.516-1.203l20.167,7.128
						c1.026,0.362,1.563,1.488,1.199,2.514c-0.362,1.026-1.485,1.565-2.514,1.202l-20.167-7.125
						C167.293,45.104,167.021,44.918,166.808,44.683z"/>
				</g>
			</g>
		</g>
		<g>
			<g>
				<g>
					<path d="M144.311,200.52c-0.684,0-1.348-0.356-1.713-0.991c-0.541-0.944-0.213-2.147,0.73-2.69l33.5-19.196
						c0.945-0.54,2.148-0.214,2.689,0.729c0.542,0.945,0.215,2.148-0.73,2.691l-33.498,19.196
						C144.98,200.436,144.643,200.52,144.311,200.52z"/>
				</g>
			</g>
		</g>
		<g>
			<g>
				<g>
					<path d="M192.966,36.705c0.012-0.682,0.378-1.341,1.021-1.693c0.952-0.524,2.15-0.177,2.677,0.776l18.624,33.819
						c0.524,0.954,0.177,2.152-0.775,2.677c-0.953,0.526-2.152,0.179-2.678-0.774L193.21,37.688
						C193.039,37.377,192.96,37.039,192.966,36.705z"/>
				</g>
			</g>
		</g>
		<g>
			<g>
				<g>
					<path d="M72.514,13.152c-0.484-0.478-0.711-1.197-0.523-1.906c0.275-1.052,1.353-1.68,2.406-1.406l37.342,9.802
						c1.055,0.277,1.685,1.354,1.407,2.406c-0.275,1.055-1.353,1.685-2.406,1.407l-37.345-9.803
						C73.05,13.563,72.752,13.387,72.514,13.152z"/>
				</g>
			</g>
		</g>
	</g>
	<g>
		<path d="M182.808,62.926c-0.438,0-0.882-0.082-1.312-0.257c-1.792-0.725-2.657-2.765-1.932-4.557
			c0.339-0.838,8.46-20.562,22.273-24.365c1.866-0.517,3.792,0.581,4.304,2.444c0.514,1.864-0.581,3.791-2.444,4.304
			c-8.729,2.403-15.696,15.427-17.645,20.242C185.502,62.1,184.191,62.926,182.808,62.926z"/>
	</g>
</g>
</svg>
