<?xml version="1.0" encoding="utf-8"?>
<!-- Generator: Adobe Illustrator 16.0.0, SVG Export Plug-In . SVG Version: 6.00 Build 0)  -->
<!DOCTYPE svg PUBLIC "-//W3C//DTD SVG 1.1//EN" "http://www.w3.org/Graphics/SVG/1.1/DTD/svg11.dtd">
<svg version="1.1" id="Layer_1" xmlns="http://www.w3.org/2000/svg" xmlns:xlink="http://www.w3.org/1999/xlink" x="0px" y="0px"
	 width="226px" height="226px" viewBox="0 0 226 226" enable-background="new 0 0 226 226" xml:space="preserve">
<g>
	<path fill="none" stroke="#000000" stroke-width="7" stroke-linecap="round" stroke-linejoin="round" stroke-miterlimit="10" d="
		M201.202,92.782"/>
</g>
<g>
	<g>
		<path d="M142.457,221.741c-0.408,0-0.815-0.07-1.207-0.215L25.823,179.109c-1.378-0.506-2.293-1.817-2.293-3.285V98.592
			c0-1.135,0.55-2.199,1.476-2.855s2.112-0.822,3.183-0.447l115.427,40.489c1.402,0.492,2.342,1.816,2.342,3.303v79.16
			c0,1.144-0.559,2.216-1.497,2.87C143.863,221.527,143.164,221.741,142.457,221.741z M30.53,173.382l108.427,39.845v-71.664
			L30.53,103.528V173.382z"/>
	</g>
	<g>
		<path d="M142.457,221.741c-0.563,0-1.127-0.136-1.643-0.409c-1.143-0.607-1.857-1.796-1.857-3.091v-79.16
			c0-1.234,0.649-2.377,1.711-3.008l58.744-34.953c1.086-0.646,2.434-0.658,3.527-0.03c1.096,0.626,1.77,1.794,1.763,3.056
			l-0.374,74.702c-0.006,1.156-0.584,2.236-1.541,2.883l-58.371,39.411C143.826,221.54,143.143,221.741,142.457,221.741z
			 M145.957,141.071v70.584l51.381-34.691l0.333-66.662L145.957,141.071z"/>
	</g>
	<g>
		<path d="M201.202,106.126c-1.933,0-3.5-1.567-3.5-3.5c0-21.436-5.472-30.951-20.185-35.106c-0.078-0.021-0.155-0.047-0.23-0.074
			C132.018,51.203,85.817,41.18,72.885,41.18c-0.049,0-0.1,0-0.15,0C29.221,53.193,30.453,95.539,30.527,97.342
			c0.079,1.929-1.419,3.561-3.348,3.644c-1.907,0.056-3.561-1.41-3.646-3.339c-0.024-0.512-0.491-12.68,5.118-26.581
			c5.215-12.923,16.852-29.789,42.675-36.757c0.27-0.073,0.546-0.113,0.823-0.12c14.646-0.367,63.633,10.938,107.388,26.628
			c22.112,6.305,25.164,23.817,25.164,41.81C204.702,104.559,203.135,106.126,201.202,106.126z"/>
	</g>
	<g>
		<path d="M140.926,139.159c-1.735,0.001-3.242-1.291-3.466-3.06c-3.286-25.866,0.959-45.5,12.614-58.355
			c13.992-15.436,33.361-15.063,34.168-15.043c1.932,0.056,3.453,1.666,3.399,3.599c-0.055,1.93-1.644,3.465-3.59,3.399l0,0
			c-0.181,0.001-17.083-0.237-28.857,12.819c-10.169,11.275-13.8,29.006-10.792,52.7c0.244,1.917-1.112,3.669-3.031,3.912
			C141.223,139.15,141.074,139.159,140.926,139.159z"/>
	</g>
	<g>
		<g>
			<circle cx="81.262" cy="134.692" r="7.551"/>
		</g>
	</g>
	<g>
		<g>
			<path d="M84.381,145.515c0,1.766-1.43,3.196-3.193,3.196l0,0c-1.764,0-3.197-1.431-3.197-3.196v-10.776
				c0-1.766,1.434-3.196,3.197-3.196l0,0c1.764,0,3.193,1.431,3.193,3.196V145.515z"/>
		</g>
	</g>
	<g>
		<g>
			<path d="M60.342,130.123c-0.215,0-0.434-0.035-0.648-0.109l-33.32-11.637c-1.027-0.358-1.568-1.482-1.21-2.511
				c0.358-1.026,1.479-1.567,2.511-1.21l33.318,11.635c1.027,0.359,1.57,1.483,1.211,2.512
				C61.92,129.615,61.156,130.123,60.342,130.123z"/>
		</g>
	</g>
	<g>
		<g>
			<path d="M67.094,85.73c-0.217,0-0.434-0.035-0.65-0.11L33.125,73.984c-1.028-0.358-1.57-1.482-1.211-2.51
				c0.357-1.027,1.479-1.568,2.51-1.211l33.319,11.635c1.026,0.359,1.569,1.484,1.211,2.511C68.67,85.222,67.908,85.73,67.094,85.73
				z"/>
		</g>
	</g>
	<g>
		<g>
			<path d="M141.816,180.043c-0.202,0-0.408-0.031-0.611-0.098l-24.503-7.991c-1.034-0.337-1.601-1.45-1.263-2.485
				c0.336-1.035,1.451-1.6,2.483-1.262l24.505,7.991c1.035,0.337,1.6,1.45,1.263,2.485
				C143.419,179.515,142.646,180.043,141.816,180.043z"/>
		</g>
	</g>
	<g>
		<g>
			<path d="M138.508,120.514c-0.203,0-0.408-0.031-0.611-0.099l-24.504-7.991c-1.035-0.337-1.6-1.449-1.264-2.484
				c0.339-1.035,1.453-1.6,2.485-1.263l24.505,7.991c1.035,0.338,1.6,1.449,1.262,2.484
				C140.11,119.984,139.338,120.514,138.508,120.514z"/>
		</g>
	</g>
	<g>
		<g>
			<path d="M142.451,202.559c-0.207,0-0.416-0.033-0.623-0.101l-56.71-18.815c-1.032-0.343-1.592-1.458-1.249-2.491
				s1.461-1.591,2.492-1.25l56.709,18.815c1.033,0.344,1.594,1.458,1.25,2.491C144.047,202.035,143.277,202.559,142.451,202.559z"/>
		</g>
	</g>
	<g>
		<g>
			<path d="M151.682,82.909c-0.207,0-0.416-0.032-0.621-0.101L94.35,63.994c-1.033-0.344-1.592-1.459-1.249-2.492
				s1.46-1.591,2.491-1.25l56.711,18.815c1.031,0.343,1.592,1.458,1.249,2.491C153.277,82.386,152.508,82.909,151.682,82.909z"/>
		</g>
	</g>
	<g>
		<g>
			<path d="M40.482,166.336c-0.205,0-0.414-0.032-0.619-0.101l-13.461-4.465c-1.033-0.344-1.592-1.459-1.25-2.491
				c0.344-1.033,1.461-1.59,2.492-1.25l13.459,4.465c1.033,0.344,1.592,1.458,1.25,2.492
				C42.079,165.813,41.309,166.336,40.482,166.336z"/>
		</g>
	</g>
	<g>
		<g>
			<path d="M142.451,159.617c-0.699,0-1.379-0.375-1.736-1.034c-0.516-0.958-0.158-2.153,0.799-2.671l18.82-10.162
				c0.959-0.517,2.154-0.16,2.67,0.798c0.518,0.958,0.162,2.153-0.797,2.67l-18.82,10.163
				C143.088,159.542,142.768,159.617,142.451,159.617z"/>
		</g>
	</g>
	<g>
		<g>
			<path d="M182.377,146.67c-0.701,0-1.381-0.375-1.736-1.035c-0.518-0.957-0.16-2.152,0.797-2.67l18.821-10.162
				c0.958-0.518,2.153-0.16,2.671,0.797c0.517,0.958,0.16,2.154-0.798,2.671l-18.821,10.163
				C183.014,146.594,182.693,146.67,182.377,146.67z"/>
		</g>
	</g>
	<g>
		<g>
			<path d="M181.531,104.128c-0.701,0-1.379-0.375-1.735-1.034c-0.518-0.959-0.16-2.154,0.798-2.672l18.822-10.162
				c0.957-0.517,2.152-0.159,2.668,0.799c0.518,0.957,0.162,2.152-0.797,2.67l-18.82,10.163
				C182.168,104.051,181.849,104.128,181.531,104.128z"/>
		</g>
	</g>
	<g>
		<g>
			<path d="M144.289,200.559c-0.684,0-1.348-0.356-1.713-0.991c-0.541-0.944-0.213-2.147,0.73-2.69l33.5-19.196
				c0.945-0.54,2.148-0.214,2.689,0.729c0.542,0.945,0.215,2.148-0.73,2.691l-33.498,19.196
				C144.959,200.475,144.621,200.559,144.289,200.559z"/>
		</g>
	</g>
	<g>
		<g>
			<path d="M142.451,110.16c-0.682,0-1.348-0.355-1.711-0.991c-0.541-0.943-0.214-2.147,0.73-2.689l33.498-19.196
				c0.945-0.541,2.149-0.214,2.689,0.729c0.543,0.944,0.215,2.148-0.729,2.69l-33.5,19.196
				C143.121,110.076,142.785,110.16,142.451,110.16z"/>
		</g>
	</g>
</g>
</svg>
