<?xml version="1.0" encoding="utf-8"?>
<!-- Generator: Adobe Illustrator 16.0.0, SVG Export Plug-In . SVG Version: 6.00 Build 0)  -->
<!DOCTYPE svg PUBLIC "-//W3C//DTD SVG 1.1//EN" "http://www.w3.org/Graphics/SVG/1.1/DTD/svg11.dtd">
<svg version="1.1" id="Layer_1" xmlns="http://www.w3.org/2000/svg" xmlns:xlink="http://www.w3.org/1999/xlink" x="0px" y="0px"
	 width="226px" height="226px" viewBox="0 0 226 226" enable-background="new 0 0 226 226" xml:space="preserve">
<g>
	<path fill="none" stroke="#000000" stroke-width="7" stroke-linecap="round" stroke-linejoin="round" stroke-miterlimit="10" d="
		M201.202,92.782"/>
</g>
<g>
	<g>
		<path d="M142.457,210.396c-0.407,0-0.815-0.07-1.207-0.215L25.823,167.764c-1.378-0.506-2.293-1.817-2.293-3.285V87.246
			c0-1.135,0.55-2.199,1.476-2.855s2.112-0.822,3.183-0.447l115.427,40.489c1.403,0.492,2.342,1.816,2.342,3.303v79.16
			c0,1.144-0.559,2.216-1.497,2.87C143.864,210.182,143.164,210.396,142.457,210.396z M30.53,162.036l108.427,39.845v-71.664
			L30.53,92.183V162.036z"/>
	</g>
	<g>
		<path d="M142.457,210.396c-0.563,0-1.127-0.136-1.643-0.409c-1.143-0.607-1.857-1.796-1.857-3.091v-79.16
			c0-1.234,0.649-2.377,1.71-3.008l58.745-34.953c1.086-0.646,2.434-0.658,3.527-0.03c1.096,0.626,1.769,1.794,1.763,3.056
			l-0.374,74.702c-0.006,1.156-0.583,2.236-1.541,2.883l-58.371,39.411C143.826,210.194,143.143,210.396,142.457,210.396z
			 M145.957,129.726v70.584l51.381-34.691l0.333-66.662L145.957,129.726z"/>
	</g>
	<g>
		<path d="M201.202,94.78c-1.933,0-3.5-1.567-3.5-3.5c0-21.436-5.471-30.951-20.185-35.106c-0.078-0.021-0.155-0.047-0.23-0.074
			c-45.269-16.242-91.47-26.266-104.402-26.266c-0.05,0-0.1,0-0.149,0C29.221,41.848,30.453,84.193,30.527,85.996
			c0.079,1.929-1.419,3.561-3.348,3.644c-1.907,0.056-3.561-1.41-3.646-3.339c-0.023-0.512-0.491-12.68,5.118-26.581
			c5.216-12.923,16.853-29.789,42.675-36.757c0.27-0.073,0.546-0.113,0.824-0.12c14.646-0.367,63.632,10.938,107.387,26.628
			c22.112,6.305,25.164,23.817,25.164,41.81C204.702,93.213,203.135,94.78,201.202,94.78z"/>
	</g>
	<g>
		<path d="M140.927,127.813c-1.736,0.001-3.243-1.291-3.467-3.06c-3.285-25.866,0.959-45.5,12.614-58.355
			c13.993-15.436,33.361-15.063,34.168-15.043c1.932,0.056,3.454,1.666,3.399,3.599c-0.055,1.93-1.644,3.465-3.59,3.399l0,0
			c-0.181,0.001-17.083-0.237-28.857,12.819c-10.169,11.275-13.799,29.006-10.791,52.7c0.244,1.917-1.113,3.669-3.031,3.912
			C141.223,127.805,141.074,127.813,140.927,127.813z"/>
	</g>
	<g>
		<g>
			<circle cx="81.262" cy="123.347" r="7.551"/>
		</g>
	</g>
	<g>
		<g>
			<path d="M84.382,134.169c0,1.766-1.431,3.196-3.194,3.196l0,0c-1.764,0-3.197-1.431-3.197-3.196v-10.776
				c0-1.766,1.434-3.196,3.197-3.196l0,0c1.764,0,3.194,1.431,3.194,3.196V134.169z"/>
		</g>
	</g>
	<g>
		<g>
			<path d="M60.343,118.777c-0.216,0-0.435-0.035-0.649-0.109l-33.32-11.637c-1.026-0.358-1.568-1.482-1.21-2.511
				c0.358-1.026,1.479-1.567,2.511-1.21l33.318,11.635c1.027,0.359,1.57,1.483,1.211,2.512
				C61.92,118.27,61.156,118.777,60.343,118.777z"/>
		</g>
	</g>
	<g>
		<g>
			<path d="M67.094,74.385c-0.216,0-0.434-0.035-0.65-0.11L33.125,62.639c-1.028-0.358-1.57-1.482-1.211-2.51
				c0.357-1.027,1.479-1.568,2.51-1.211l33.319,11.635c1.027,0.359,1.569,1.484,1.211,2.511
				C68.67,73.876,67.908,74.385,67.094,74.385z"/>
		</g>
	</g>
	<g>
		<g>
			<path d="M141.816,168.697c-0.202,0-0.408-0.031-0.611-0.098l-24.503-7.991c-1.035-0.337-1.601-1.45-1.263-2.485
				c0.337-1.035,1.452-1.6,2.483-1.262l24.505,7.991c1.035,0.337,1.6,1.45,1.263,2.485
				C143.419,168.169,142.646,168.697,141.816,168.697z"/>
		</g>
	</g>
	<g>
		<g>
			<path d="M138.508,109.168c-0.203,0-0.408-0.031-0.611-0.099l-24.504-7.991c-1.035-0.337-1.6-1.449-1.263-2.484
				c0.338-1.035,1.452-1.6,2.484-1.263l24.505,7.991c1.035,0.338,1.6,1.449,1.262,2.484
				C140.11,108.639,139.338,109.168,138.508,109.168z"/>
		</g>
	</g>
	<g>
		<g>
			<path d="M142.451,191.213c-0.207,0-0.416-0.033-0.622-0.101l-56.711-18.815c-1.032-0.343-1.592-1.458-1.249-2.491
				s1.461-1.591,2.492-1.25l56.71,18.815c1.032,0.344,1.593,1.458,1.249,2.491C144.047,190.689,143.277,191.213,142.451,191.213z"/>
		</g>
	</g>
	<g>
		<g>
			<path d="M151.682,71.563c-0.207,0-0.415-0.032-0.621-0.101L94.35,52.648c-1.033-0.344-1.592-1.459-1.249-2.492
				s1.46-1.591,2.491-1.25l56.711,18.815c1.031,0.343,1.592,1.458,1.249,2.491C153.277,71.04,152.508,71.563,151.682,71.563z"/>
		</g>
	</g>
	<g>
		<g>
			<path d="M40.483,154.99c-0.206,0-0.415-0.032-0.62-0.101l-13.461-4.465c-1.033-0.344-1.592-1.459-1.25-2.491
				c0.344-1.033,1.461-1.59,2.492-1.25l13.459,4.465c1.033,0.344,1.592,1.458,1.25,2.492
				C42.079,154.467,41.309,154.99,40.483,154.99z"/>
		</g>
	</g>
	<g>
		<g>
			<path d="M142.452,148.271c-0.701,0-1.38-0.375-1.737-1.034c-0.516-0.958-0.158-2.153,0.799-2.671l18.82-10.162
				c0.959-0.517,2.154-0.16,2.671,0.798s0.16,2.153-0.798,2.67l-18.82,10.163C143.089,148.196,142.768,148.271,142.452,148.271z"/>
		</g>
	</g>
	<g>
		<g>
			<path d="M182.377,135.324c-0.701,0-1.38-0.375-1.736-1.035c-0.518-0.957-0.16-2.152,0.798-2.67l18.82-10.162
				c0.959-0.518,2.153-0.16,2.671,0.797c0.517,0.958,0.16,2.154-0.798,2.671l-18.821,10.163
				C183.014,135.248,182.693,135.324,182.377,135.324z"/>
		</g>
	</g>
	<g>
		<g>
			<path d="M181.532,92.782c-0.702,0-1.38-0.375-1.736-1.034c-0.518-0.959-0.16-2.154,0.798-2.672l18.821-10.162
				c0.958-0.517,2.153-0.159,2.669,0.799c0.518,0.957,0.162,2.152-0.797,2.67l-18.82,10.163
				C182.168,92.705,181.849,92.782,181.532,92.782z"/>
		</g>
	</g>
	<g>
		<g>
			<path d="M144.289,189.213c-0.684,0-1.348-0.356-1.713-0.991c-0.54-0.944-0.213-2.147,0.731-2.69l33.499-19.196
				c0.944-0.54,2.148-0.214,2.689,0.729c0.542,0.945,0.215,2.148-0.729,2.691l-33.499,19.196
				C144.958,189.129,144.621,189.213,144.289,189.213z"/>
		</g>
	</g>
	<g>
		<g>
			<path d="M142.452,98.814c-0.683,0-1.349-0.355-1.712-0.991c-0.541-0.943-0.214-2.147,0.73-2.689l33.499-19.196
				c0.944-0.541,2.148-0.214,2.688,0.729c0.543,0.944,0.215,2.148-0.729,2.69l-33.5,19.196
				C143.121,98.73,142.785,98.814,142.452,98.814z"/>
		</g>
	</g>
</g>
</svg>
