<?xml version="1.0" encoding="utf-8"?>
<!-- Generator: Adobe Illustrator 16.0.0, SVG Export Plug-In . SVG Version: 6.00 Build 0)  -->
<!DOCTYPE svg PUBLIC "-//W3C//DTD SVG 1.1//EN" "http://www.w3.org/Graphics/SVG/1.1/DTD/svg11.dtd">
<svg version="1.1" id="Layer_1" xmlns="http://www.w3.org/2000/svg" xmlns:xlink="http://www.w3.org/1999/xlink" x="0px" y="0px"
	 width="226px" height="226px" viewBox="0 0 226 226" enable-background="new 0 0 226 226" xml:space="preserve">
<g>
	<g>
		<g>
			<path d="M143.634,110.781c-2.563,0-5.116-1.031-6.982-3.068c-3.539-3.854-3.28-9.846,0.575-13.384l42.682-39.173
				c3.854-3.538,9.845-3.28,13.385,0.576c3.537,3.854,3.278,9.846-0.576,13.385l-42.682,39.171
				C148.216,109.957,145.922,110.781,143.634,110.781z"/>
		</g>
	</g>
	<g>
		<g>
			<path d="M186.309,110.781c-2.287,0-4.582-0.824-6.4-2.493l-42.682-39.171c-3.855-3.539-4.114-9.531-0.575-13.385
				c3.542-3.854,9.533-4.109,13.384-0.576l42.682,39.173c3.854,3.538,4.113,9.53,0.576,13.384
				C191.424,109.748,188.871,110.781,186.309,110.781z"/>
		</g>
	</g>
	<g>
		<g>
			<path d="M181.5,216.752H44.701c-1.933,0-3.5-1.567-3.5-3.5v-11.675H13.334c-1.934,0-3.5-1.567-3.5-3.5V15.624
				c0-1.933,1.566-3.5,3.5-3.5h31.367c1.932,0,3.5,1.567,3.5,3.5v11.675H178V15.624c0-1.933,1.566-3.5,3.5-3.5h33.168
				c1.932,0,3.5,1.567,3.5,3.5v25.624c0,1.15-0.566,2.228-1.514,2.881l-7.25,5.003l7.133,4.51c1.015,0.641,1.631,1.758,1.631,2.958
				v141.478c0,1.933-1.568,3.5-3.5,3.5H185v11.675C185,215.185,183.433,216.752,181.5,216.752z M48.201,209.752H178v-11.675
				c0-1.933,1.566-3.5,3.5-3.5h29.668V58.527l-9.982-6.31c-0.992-0.628-1.605-1.713-1.628-2.888
				c-0.024-1.175,0.544-2.283,1.511-2.951l10.1-6.968V19.124H185v11.675c0,1.933-1.567,3.5-3.5,3.5H44.701
				c-1.933,0-3.5-1.567-3.5-3.5V19.124H16.834v175.453h27.867c1.932,0,3.5,1.567,3.5,3.5V209.752z"/>
		</g>
	</g>
	<g>
		<g>
			<path d="M181.25,200.986c-1.933,0-3.5-1.567-3.5-3.5v-8.052c0-1.933,1.567-3.5,3.5-3.5c1.932,0,3.5,1.567,3.5,3.5v8.052
				C184.75,199.419,183.182,200.986,181.25,200.986z"/>
		</g>
	</g>
	<g>
		<g>
			<path d="M44.701,43.653c-1.933,0-3.5-1.567-3.5-3.5v-8.052c0-1.933,1.567-3.5,3.5-3.5c1.932,0,3.5,1.567,3.5,3.5v8.052
				C48.201,42.086,46.633,43.653,44.701,43.653z"/>
		</g>
	</g>
	<g>
		<g>
			<path d="M57.701,159.629c-0.236,0-0.474-0.024-0.715-0.073c-7.467-1.546-15.785-8.229-15.785-15.347
				c0-0.14,0.002-0.28,0.01-0.419c0.087-1.932,1.719-3.43,3.655-3.337c1.931,0.088,3.425,1.724,3.337,3.655l-0.002,0.101
				c0,2.785,4.949,7.403,10.206,8.491c1.893,0.393,3.109,2.244,2.718,4.138C60.782,158.491,59.325,159.629,57.701,159.629z
				 M67.023,147.562c-1.695,0-3.185-1.233-3.454-2.961l-0.032-0.188c-0.937-5.32-4.727-10.006-8.393-14.538
				c-1.215-1.503-0.982-3.707,0.521-4.923c1.504-1.214,3.706-0.982,4.922,0.521c4.027,4.98,8.593,10.625,9.84,17.704l0.058,0.344
				c0.298,1.909-1.008,3.699-2.919,3.998C67.385,147.547,67.202,147.562,67.023,147.562z M111.48,129.414
				c-1.29,0-2.531-0.716-3.141-1.951c-0.857-1.732-0.146-3.832,1.588-4.688c0.249-0.123,0.576-0.347,0.977-0.664
				c2.26-1.792,4.594-5.344,4.594-8.189c0-0.1-0.003-0.198-0.01-0.296c-0.061-0.872-0.258-1.79-0.588-2.749
				c-0.631-1.827,0.341-3.819,2.168-4.449c1.828-0.634,3.82,0.341,4.449,2.168c0.531,1.54,0.852,3.063,0.953,4.529
				c0.019,0.251,0.027,0.523,0.027,0.797c0,5.447-3.754,10.905-7.241,13.672c-0.796,0.633-1.526,1.109-2.229,1.457
				C112.529,129.297,112.002,129.414,111.48,129.414z M95.653,120.521c-0.921,0-1.841-0.361-2.528-1.08
				c-1.023-1.067-2.025-2.163-3.028-3.258c-3.273-3.575-6.366-6.953-10.032-9.276c-1.632-1.034-2.117-3.197-1.082-4.83
				c1.034-1.633,3.198-2.114,4.83-1.082c4.452,2.822,8.008,6.705,11.447,10.461c0.967,1.058,1.936,2.114,2.922,3.146
				c1.336,1.396,1.287,3.611-0.108,4.948C97.395,120.199,96.523,120.521,95.653,120.521z M49.395,114.688
				c-0.122,0-0.246-0.006-0.37-0.02c-1.923-0.202-3.317-1.925-3.114-3.847c0.727-6.909,7.162-11.974,17.213-13.547
				c1.899-0.298,3.699,1.007,3.999,2.917c0.298,1.909-1.007,3.7-2.917,3.999c-5.189,0.813-10.893,3.174-11.334,7.363
				C52.682,113.353,51.163,114.688,49.395,114.688z M107.346,97.786c-0.939,0-1.877-0.376-2.566-1.12
				c-3.119-3.362-6.004-7.018-6.004-10.967c0-0.868,0.143-1.713,0.424-2.511c1.004-2.844,3.478-5.141,7.352-6.829
				c1.771-0.777,3.834,0.038,4.607,1.81c0.771,1.772-0.039,3.835-1.811,4.607c-1.91,0.831-3.234,1.856-3.547,2.741
				c-0.011,0.03-0.025,0.082-0.025,0.182c0,1.159,1.393,3.248,4.137,6.207c1.314,1.417,1.232,3.632-0.187,4.946
				C109.052,97.478,108.198,97.786,107.346,97.786z M136.527,85.92c-3.727,0-6.523-1.581-8.989-2.977
				c-0.87-0.492-1.693-0.957-2.521-1.336c-1.758-0.804-2.531-2.88-1.727-4.639c0.803-1.758,2.877-2.53,4.639-1.727
				c1.1,0.503,2.093,1.064,3.053,1.607c2.197,1.243,3.879,2.189,5.972,2.056l0.276-0.019c0.508-0.031,0.514-0.034,0.623-0.075
				c1.807-0.696,3.828,0.21,4.521,2.015c0.691,1.805-0.211,3.829-2.016,4.521c-1.115,0.428-1.916,0.478-2.689,0.526l-0.25,0.017
				C137.111,85.91,136.817,85.92,136.527,85.92z"/>
		</g>
	</g>
</g>
</svg>
